<svg width="241" height="34" viewBox="0 0 241 34" fill="none" xmlns="http://www.w3.org/2000/svg">
<path d="M3.2 32H28.8C30.5673 32 32 30.5673 32 28.8V9.2L22.8 0H3.2C1.43269 0 0 1.43269 0 3.2V28.8C0 30.5673 1.43269 32 3.2 32Z" fill="#0F80CC"/>
<path d="M31.9999 9.2H25.9999C25.1226 9.2 24.3278 8.84697 23.7498 8.27524L31.9999 17.2L31.9999 9.2Z" fill="#003B57"/>
<path d="M22.7999 6V0L31.9999 9.2H25.9999C25.1226 9.2 24.3278 8.84698 23.7498 8.27524C23.1633 7.6952 22.7999 6.89003 22.7999 6Z" fill="#97D9F6"/>
<path d="M2.66663 18C2.66663 17.2636 3.26358 16.6667 3.99996 16.6667H28C28.7363 16.6667 29.3333 17.2636 29.3333 18V28C29.3333 28.7364 28.7363 29.3333 28 29.3333H3.99996C3.26358 29.3333 2.66663 28.7364 2.66663 28V18Z" fill="white"/>
<path d="M7.20313 24.3978C7.20313 24.1862 7.11523 24.025 6.93945 23.9144C6.76693 23.8037 6.47884 23.706 6.0752 23.6214C5.67155 23.5368 5.33464 23.4293 5.06445 23.2991C4.47201 23.0127 4.17578 22.5976 4.17578 22.054C4.17578 21.5983 4.36784 21.2174 4.75195 20.9114C5.13607 20.6054 5.62435 20.4525 6.2168 20.4525C6.84831 20.4525 7.35775 20.6087 7.74512 20.9212C8.13574 21.2337 8.33105 21.639 8.33105 22.137H7.14453C7.14453 21.9092 7.0599 21.7204 6.89063 21.5706C6.72135 21.4176 6.49674 21.3411 6.2168 21.3411C5.95638 21.3411 5.74316 21.4013 5.57715 21.5218C5.41439 21.6422 5.33301 21.8034 5.33301 22.0052C5.33301 22.1875 5.40951 22.3291 5.5625 22.43C5.71549 22.5309 6.02474 22.6334 6.49023 22.7376C6.95573 22.8385 7.32031 22.9606 7.58398 23.1038C7.85091 23.2438 8.04785 23.4131 8.1748 23.6116C8.30501 23.8102 8.37012 24.0511 8.37012 24.3343C8.37012 24.8096 8.17318 25.1953 7.7793 25.4915C7.38542 25.7845 6.86947 25.931 6.23145 25.931C5.7985 25.931 5.41276 25.8528 5.07422 25.6966C4.73568 25.5403 4.47201 25.3255 4.2832 25.0521C4.0944 24.7786 4 24.484 4 24.1683H5.15234C5.16862 24.4482 5.27441 24.6647 5.46973 24.8177C5.66504 24.9674 5.92383 25.0423 6.24609 25.0423C6.55859 25.0423 6.79622 24.9837 6.95898 24.8665C7.12174 24.7461 7.20313 24.5898 7.20313 24.3978Z" fill="#16171A"/>
<path d="M9.18555 23.1478C9.18555 22.3209 9.37435 21.665 9.75195 21.18C10.1296 20.695 10.6406 20.4525 11.2852 20.4525C11.8743 20.4525 12.3415 20.6592 12.6865 21.0726L12.7549 20.5501H13.8096V27.8646H12.623V25.3841C12.278 25.7487 11.8288 25.931 11.2754 25.931C10.6439 25.931 10.1377 25.6852 9.75684 25.1937C9.37598 24.6989 9.18555 24.0169 9.18555 23.1478ZM10.3721 23.2503C10.3721 23.7907 10.4779 24.2155 10.6895 24.5247C10.9043 24.8307 11.2005 24.9837 11.5781 24.9837C12.0469 24.9837 12.3952 24.7835 12.623 24.3831V21.9808C12.3952 21.5967 12.0501 21.4046 11.5879 21.4046C11.2103 21.4046 10.9124 21.556 10.6943 21.8587C10.4795 22.1614 10.3721 22.6253 10.3721 23.2503Z" fill="#16171A"/>
<path d="M16.3535 25.8333H15.167V18.3333H16.3535V25.8333Z" fill="#16171A"/>
<path d="M18.9121 25.8333H17.7256V20.5501H18.9121V25.8333ZM17.6523 19.178C17.6523 18.9957 17.7093 18.8444 17.8232 18.7239C17.9404 18.6035 18.1064 18.5433 18.3213 18.5433C18.5361 18.5433 18.7021 18.6035 18.8193 18.7239C18.9365 18.8444 18.9951 18.9957 18.9951 19.178C18.9951 19.3571 18.9365 19.5068 18.8193 19.6273C18.7021 19.7444 18.5361 19.803 18.3213 19.803C18.1064 19.803 17.9404 19.7444 17.8232 19.6273C17.7093 19.5068 17.6523 19.3571 17.6523 19.178Z" fill="#16171A"/>
<path d="M21.6953 19.2659V20.5501H22.6279V21.429H21.6953V24.3782C21.6953 24.5801 21.7344 24.7265 21.8125 24.8177C21.8939 24.9056 22.0371 24.9495 22.2422 24.9495C22.3789 24.9495 22.5173 24.9332 22.6572 24.9007V25.8187C22.387 25.8935 22.1266 25.931 21.876 25.931C20.9645 25.931 20.5088 25.428 20.5088 24.4222V21.429H19.6396V20.5501H20.5088V19.2659H21.6953Z" fill="#16171A"/>
<path d="M25.8652 25.931C25.1133 25.931 24.5029 25.695 24.0342 25.223C23.5687 24.7477 23.3359 24.1162 23.3359 23.3284V23.1819C23.3359 22.6546 23.4368 22.1842 23.6387 21.7708C23.8438 21.3541 24.1302 21.0303 24.498 20.7991C24.8659 20.568 25.276 20.4525 25.7285 20.4525C26.4479 20.4525 27.0029 20.6819 27.3936 21.1409C27.7874 21.5999 27.9844 22.2493 27.9844 23.0892V23.5677H24.5322C24.568 24.0039 24.7129 24.3489 24.9668 24.6028C25.224 24.8568 25.5462 24.9837 25.9336 24.9837C26.4772 24.9837 26.9199 24.764 27.2617 24.3245L27.9014 24.9349C27.6898 25.2506 27.4066 25.4964 27.0518 25.6722C26.7002 25.8447 26.3047 25.931 25.8652 25.931ZM25.7236 21.4046C25.3981 21.4046 25.1344 21.5185 24.9326 21.7464C24.7341 21.9743 24.6071 22.2916 24.5518 22.6985H26.8125V22.6107C26.7865 22.2135 26.6807 21.914 26.4951 21.7122C26.3096 21.5071 26.0524 21.4046 25.7236 21.4046Z" fill="#16171A"/>
<path d="M54.4453 22.5312C54.4453 21.2539 54.0996 20.2754 53.4082 19.5957C52.7168 18.916 51.4688 18.2539 49.6641 17.6094C47.8594 16.9648 46.4766 16.291 45.5156 15.5879C44.5664 14.873 43.8516 14.0645 43.3711 13.1621C42.9023 12.248 42.668 11.2051 42.668 10.0332C42.668 8.00586 43.3418 6.33594 44.6895 5.02344C46.0488 3.71094 47.8242 3.05469 50.0156 3.05469C51.5156 3.05469 52.8516 3.39453 54.0234 4.07422C55.1953 4.74219 56.0977 5.67383 56.7305 6.86914C57.3633 8.06445 57.6797 9.37695 57.6797 10.8066H54.4453C54.4453 9.22461 54.0645 8 53.3027 7.13281C52.541 6.26562 51.4453 5.83203 50.0156 5.83203C48.7148 5.83203 47.707 6.19531 46.9922 6.92188C46.2773 7.64844 45.9199 8.66797 45.9199 9.98047C45.9199 11.0586 46.3066 11.9609 47.0801 12.6875C47.8535 13.4141 49.0488 14.0645 50.666 14.6387C53.1855 15.4707 54.9844 16.4961 56.0625 17.7148C57.1523 18.9336 57.6973 20.5273 57.6973 22.4961C57.6973 24.5703 57.0234 26.2344 55.6758 27.4883C54.3281 28.7305 52.4941 29.3516 50.1738 29.3516C48.6855 29.3516 47.3086 29.0293 46.043 28.3848C44.7891 27.7285 43.7988 26.8145 43.0723 25.6426C42.3574 24.459 42 23.1055 42 21.582H45.2344C45.2344 23.1641 45.6738 24.3945 46.5527 25.2734C47.4434 26.1523 48.6504 26.5918 50.1738 26.5918C51.5918 26.5918 52.6582 26.2285 53.373 25.502C54.0879 24.7754 54.4453 23.7852 54.4453 22.5312Z" fill="#16171A"/>
<path d="M78.4395 18.4355C78.4395 20.6855 78.1348 22.5898 77.5254 24.1484C76.9277 25.6953 76.0723 26.9023 74.959 27.7695L78.7734 31.1973L76.5938 33.3242L71.9883 29.123C71.25 29.2754 70.5352 29.3516 69.8438 29.3516C67.1836 29.3516 65.0859 28.4199 63.5508 26.5566C62.0273 24.6816 61.248 22.0508 61.2129 18.6641V14.0059C61.2129 10.5605 61.9688 7.87695 63.4805 5.95508C64.9922 4.02148 67.1016 3.05469 69.8086 3.05469C72.5391 3.05469 74.6543 3.99805 76.1543 5.88477C77.6543 7.75977 78.416 10.4199 78.4395 13.8652V18.4355ZM75.2227 13.9707C75.2227 11.2637 74.7773 9.25391 73.8867 7.94141C73.0078 6.61719 71.6484 5.95508 69.8086 5.95508C68.0508 5.95508 66.7148 6.62305 65.8008 7.95898C64.8984 9.29492 64.4414 11.2637 64.4297 13.8652V18.4355C64.4297 21.0605 64.8809 23.0586 65.7832 24.4297C66.6973 25.8008 68.0508 26.4863 69.8438 26.4863C71.625 26.4863 72.9551 25.8652 73.834 24.623C74.7129 23.3809 75.1758 21.4648 75.2227 18.875V13.9707Z" fill="#16171A"/>
<path d="M86.7891 26.2402H96.8262V29H83.5547V3.40625H86.7891V26.2402Z" fill="#16171A"/>
<path d="M103.594 29H100.482V9.98047H103.594V29ZM103.84 4.93555C103.84 5.46289 103.693 5.90234 103.4 6.25391C103.107 6.60547 102.662 6.78125 102.064 6.78125C101.479 6.78125 101.039 6.60547 100.746 6.25391C100.453 5.90234 100.307 5.46289 100.307 4.93555C100.307 4.4082 100.453 3.96289 100.746 3.59961C101.039 3.23633 101.479 3.05469 102.064 3.05469C102.65 3.05469 103.09 3.24219 103.383 3.61719C103.688 3.98047 103.84 4.41992 103.84 4.93555Z" fill="#16171A"/>
<path d="M112.576 5.375V9.98047H115.441V12.4941H112.576V24.2891C112.576 25.0391 112.699 25.6074 112.945 25.9941C113.191 26.3809 113.613 26.5742 114.211 26.5742C114.621 26.5742 115.037 26.5039 115.459 26.3633L115.424 29C114.721 29.2344 114 29.3516 113.262 29.3516C112.031 29.3516 111.094 28.9121 110.449 28.0332C109.805 27.1543 109.482 25.9121 109.482 24.3066V12.4941H106.582V9.98047H109.482V5.375H112.576Z" fill="#16171A"/>
<path d="M125.953 29.3516C123.586 29.3516 121.77 28.6484 120.504 27.2422C119.238 25.8242 118.594 23.75 118.57 21.0195V18.7168C118.57 15.8809 119.186 13.6602 120.416 12.0547C121.658 10.4375 123.387 9.62891 125.602 9.62891C127.828 9.62891 129.492 10.3379 130.594 11.7559C131.695 13.1738 132.258 15.3828 132.281 18.3828V20.4219H121.664V20.8613C121.664 22.9004 122.045 24.3828 122.807 25.3086C123.58 26.2344 124.688 26.6973 126.129 26.6973C127.043 26.6973 127.846 26.5273 128.537 26.1875C129.24 25.8359 129.896 25.2852 130.506 24.5352L132.123 26.5039C130.775 28.4023 128.719 29.3516 125.953 29.3516ZM125.602 12.3008C124.312 12.3008 123.357 12.7461 122.736 13.6367C122.115 14.5156 121.764 15.8867 121.682 17.75H129.17V17.3281C129.088 15.5234 128.76 14.2344 128.186 13.4609C127.623 12.6875 126.762 12.3008 125.602 12.3008Z" fill="#16171A"/>
<path d="M152.461 18.6465H147.961V29H144.727V3.40625H151.898C154.406 3.40625 156.305 4.0625 157.594 5.375C158.883 6.67578 159.527 8.58594 159.527 11.1055C159.527 12.6875 159.176 14.0703 158.473 15.2539C157.781 16.4258 156.797 17.3105 155.52 17.9082L160.477 28.7891V29H157.014L152.461 18.6465ZM147.961 15.8867H151.863C153.211 15.8867 154.283 15.4531 155.08 14.5859C155.889 13.7188 156.293 12.5586 156.293 11.1055C156.293 7.82422 154.805 6.18359 151.828 6.18359H147.961V15.8867Z" fill="#16171A"/>
<path d="M170.215 29.3516C167.848 29.3516 166.031 28.6484 164.766 27.2422C163.5 25.8242 162.855 23.75 162.832 21.0195V18.7168C162.832 15.8809 163.447 13.6602 164.678 12.0547C165.92 10.4375 167.648 9.62891 169.863 9.62891C172.09 9.62891 173.754 10.3379 174.855 11.7559C175.957 13.1738 176.52 15.3828 176.543 18.3828V20.4219H165.926V20.8613C165.926 22.9004 166.307 24.3828 167.068 25.3086C167.842 26.2344 168.949 26.6973 170.391 26.6973C171.305 26.6973 172.107 26.5273 172.799 26.1875C173.502 25.8359 174.158 25.2852 174.768 24.5352L176.385 26.5039C175.037 28.4023 172.98 29.3516 170.215 29.3516ZM169.863 12.3008C168.574 12.3008 167.619 12.7461 166.998 13.6367C166.377 14.5156 166.025 15.8867 165.943 17.75H173.432V17.3281C173.35 15.5234 173.021 14.2344 172.447 13.4609C171.885 12.6875 171.023 12.3008 169.863 12.3008Z" fill="#16171A"/>
<path d="M190.078 29C189.891 28.5898 189.756 27.8984 189.674 26.9258C188.572 28.543 187.166 29.3516 185.455 29.3516C183.732 29.3516 182.385 28.8711 181.412 27.9102C180.451 26.9375 179.971 25.5723 179.971 23.8145C179.971 21.8809 180.627 20.3457 181.939 19.209C183.252 18.0723 185.051 17.4922 187.336 17.4688H189.621V15.4473C189.621 14.3105 189.369 13.502 188.865 13.0215C188.361 12.541 187.594 12.3008 186.562 12.3008C185.625 12.3008 184.863 12.582 184.277 13.1445C183.691 13.6953 183.398 14.3984 183.398 15.2539H180.287C180.287 14.2812 180.574 13.3555 181.148 12.4766C181.723 11.5859 182.496 10.8887 183.469 10.3848C184.441 9.88086 185.525 9.62891 186.721 9.62891C188.666 9.62891 190.143 10.1152 191.15 11.0879C192.17 12.0488 192.691 13.4551 192.715 15.3066V24.9043C192.727 26.3691 192.926 27.6406 193.312 28.7188V29H190.078ZM185.93 26.5215C186.691 26.5215 187.418 26.3105 188.109 25.8887C188.801 25.4668 189.305 24.9395 189.621 24.3066V19.7715H187.863C186.387 19.7949 185.221 20.1289 184.365 20.7734C183.51 21.4062 183.082 22.2969 183.082 23.4453C183.082 24.5234 183.299 25.3086 183.732 25.8008C184.166 26.2812 184.898 26.5215 185.93 26.5215Z" fill="#16171A"/>
<path d="M196.898 18.6289C196.898 15.6992 197.443 13.4668 198.533 11.9316C199.635 10.3965 201.211 9.62891 203.262 9.62891C205.078 9.62891 206.496 10.3672 207.516 11.8438V2H210.627V29H207.779L207.621 26.9609C206.602 28.5547 205.143 29.3516 203.244 29.3516C201.275 29.3516 199.729 28.5898 198.604 27.0664C197.49 25.5312 196.922 23.3691 196.898 20.5801V18.6289ZM200.01 20.4043C200.01 22.5371 200.326 24.1074 200.959 25.1152C201.592 26.1113 202.623 26.6094 204.053 26.6094C205.6 26.6094 206.754 25.8301 207.516 24.2715V14.6738C206.719 13.1504 205.57 12.3887 204.07 12.3887C202.641 12.3887 201.609 12.8926 200.977 13.9004C200.344 14.8965 200.021 16.4316 200.01 18.5059V20.4043Z" fill="#16171A"/>
<path d="M222.211 29.3516C219.844 29.3516 218.027 28.6484 216.762 27.2422C215.496 25.8242 214.852 23.75 214.828 21.0195V18.7168C214.828 15.8809 215.443 13.6602 216.674 12.0547C217.916 10.4375 219.645 9.62891 221.859 9.62891C224.086 9.62891 225.75 10.3379 226.852 11.7559C227.953 13.1738 228.516 15.3828 228.539 18.3828V20.4219H217.922V20.8613C217.922 22.9004 218.303 24.3828 219.064 25.3086C219.838 26.2344 220.945 26.6973 222.387 26.6973C223.301 26.6973 224.104 26.5273 224.795 26.1875C225.498 25.8359 226.154 25.2852 226.764 24.5352L228.381 26.5039C227.033 28.4023 224.977 29.3516 222.211 29.3516ZM221.859 12.3008C220.57 12.3008 219.615 12.7461 218.994 13.6367C218.373 14.5156 218.021 15.8867 217.939 17.75H225.428V17.3281C225.346 15.5234 225.018 14.2344 224.443 13.4609C223.881 12.6875 223.02 12.3008 221.859 12.3008Z" fill="#16171A"/>
<path d="M240.141 12.8984C239.707 12.8164 239.238 12.7754 238.734 12.7754C237.141 12.7754 236.027 13.6484 235.395 15.3945V29H232.283V9.98047H235.307L235.359 11.9141C236.191 10.3906 237.369 9.62891 238.893 9.62891C239.385 9.62891 239.795 9.71094 240.123 9.875L240.141 12.8984Z" fill="#16171A"/>
</svg>
